<svg width="24" height="24" viewBox="0 0 24 24" fill="none" xmlns="http://www.w3.org/2000/svg">
<path d="M14.7326 5.0507C15.8236 4.8409 16.453 5.15561 17.5649 5.00875C18.2363 4.90385 18.3832 4.16955 18.4251 3.43524C18.4671 2.65898 17.9636 2.17644 17.2502 2.17644C15.5089 2.17644 14.9424 2.1135 13.2221 2.38624C11.7745 2.61702 10.6835 3.2674 10.2639 5.1556C10.0751 5.97382 9.97018 6.89695 9.8443 7.73615C9.71842 8.47045 9.82332 9.45651 9.38273 9.89709C8.92117 10.3587 7.89315 10.1698 7.17983 10.4426C6.71827 10.6314 6.17279 11.072 6.04691 11.5126C5.83711 12.1839 6.36161 12.6455 7.01199 12.8133C7.57845 12.9392 8.14491 13.0021 8.71137 13.0861C9.36175 13.17 9.65548 13.4427 9.69744 14.198C9.82332 16.4429 10.0541 18.6877 10.2849 20.9326C10.3059 21.2053 10.4527 21.604 10.6415 21.6879C11.229 21.9187 11.9633 22.2963 12.4668 22.1284C12.9493 21.9606 13.5158 21.1844 13.5368 20.6389C13.6627 18.352 13.5787 16.0652 13.5787 13.7574C14.8375 13.6106 15.8446 13.5057 16.8306 13.3378C17.8167 13.17 18.3202 12.5196 18.2992 11.5755C18.2783 10.6314 17.7538 10.0859 16.8516 9.93906C16.1173 9.81318 15.362 9.70827 14.6277 9.70827C13.8515 9.70827 13.5158 9.45651 13.5578 8.65927C13.5787 7.88301 13.5787 8.09281 13.5787 7.25361C13.5578 6.41441 13.9983 5.19756 14.7326 5.0507Z" fill="black"/>
</svg>
