<svg width="24" height="24" viewBox="0 0 24 24" fill="none" xmlns="http://www.w3.org/2000/svg">
<path d="M22.6187 2.81063C22.2679 2.83256 22.0925 3.00796 21.8732 3.07374C21.0839 3.31492 20.3165 3.97269 19.4395 3.20529C17.8827 1.86783 16.1068 1.58279 14.3308 2.65715C12.5548 3.75343 11.1516 5.15668 11.4366 7.52464C11.4804 7.78775 11.4366 8.07278 11.4366 8.46744C7.88465 7.48079 4.44232 6.45029 1.98665 3.42455C1.9428 3.3807 1.83318 3.44647 1.78932 3.51225C1.0877 5.52941 0.934222 7.34923 2.57864 9.08136C2.51287 9.01558 1.06578 9.12521 1.02193 9.21291C1 9.25676 1 9.30062 1 9.34447C1.06578 10.3969 1.30696 11.3835 2.07436 12.1509C2.42517 12.4798 2.81983 12.7649 3.23641 12.9622C3.36797 13.028 4.70543 13.5103 4.70543 13.5323C4.68351 13.62 4.68351 13.7296 4.66158 13.8173C3.98189 13.9708 3.28027 14.1243 2.51287 14.2777C2.49094 14.2777 2.42517 14.3216 2.44709 14.3654C2.5348 14.5408 2.77598 15.0013 2.7979 15.0232C3.12679 15.5713 3.58723 16.0318 4.13537 16.3607C4.92469 16.8211 5.80172 17.0184 6.67874 17.1938C6.70067 17.5008 6.70067 17.5008 6.39371 17.6324C6.15252 17.742 5.88942 17.8516 5.64823 17.9393L4.20114 18.5532C3.21449 18.9698 2.42517 19.2768 1.17541 19.8249C1.06578 19.8688 1.28503 19.9565 1.32888 19.9784C1.48236 20.0661 1.63584 20.1319 1.78932 20.1977C2.09628 20.3292 2.38131 20.4827 2.68827 20.6142C5.97712 22.0833 9.74833 22.5876 13.1468 21.1185C13.388 21.0089 13.6292 20.8993 13.8703 20.7677C16.2164 19.5399 18.0143 17.7639 19.3079 15.4617C20.755 12.8745 21.8732 10.2434 21.7416 7.19576C21.7197 6.8011 22.0486 6.36259 22.2679 5.98985C22.6187 5.50749 24.0877 3.13952 22.6187 2.81063Z" fill="black"/>
</svg>
