<svg width="24" height="24" viewBox="0 0 24 24" fill="none" xmlns="http://www.w3.org/2000/svg">
<path d="M15.4304 8.03846C14.8342 8 14.1804 7.82692 14.3342 7.15384C14.4111 6.80769 15.1035 6.48077 15.5458 6.38461C16.0458 6.28846 16.6419 6.51923 16.6227 7.19231C16.6035 7.90384 16.0265 8.03846 15.4304 8.03846Z" fill="black"/>
<path d="M14.0458 22C11.5073 22 8.0073 21.8846 6.77653 21.7308C3.85345 21.3077 2.10345 19.4808 1.89192 16.5769C1.69961 13.9038 1.6996 11.3077 1.91114 8.82692C2.27653 4.73077 5.18037 2.05769 9.33422 2.01923H10.1996C10.8919 2.01923 11.6034 2 12.2958 2C13.5073 2 14.4881 2.01923 15.3727 2.07692C19.2381 2.30769 21.7188 4.67308 22.0265 8.38462C22.2958 11.6731 22.2573 14.1923 21.8727 16.5577C21.4688 19.0769 20.3919 20.6154 18.4881 21.3846C17.7573 21.6731 16.8919 21.8654 15.8342 21.9423C15.565 21.9808 14.9111 22 14.0458 22ZM8.71884 3.57693C5.7573 3.57693 3.27653 5.88461 3.10345 8.80769C2.94961 11.1346 2.96883 13.6154 3.16114 16.3846C3.29576 18.5385 5.0073 20.1154 7.29576 20.1923C7.7573 20.2115 8.2573 20.2115 8.85345 20.2115C9.27653 20.2115 9.6996 20.2115 10.1227 20.2115C10.5458 20.2115 10.9688 20.2115 11.3919 20.2115H11.5458V20.1731C11.9496 20.1731 12.3342 20.1731 12.7381 20.1731C13.1804 20.1731 13.6419 20.1731 14.0842 20.1731C14.7381 20.1731 15.2765 20.1731 15.7765 20.1538C17.9688 20.0962 19.4688 18.8462 19.815 16.8269C20.3342 13.6346 20.3727 10.4808 19.9111 7.46154C19.6611 5.76923 18.1996 4.28846 16.565 4.11538C14.0842 3.84615 11.4304 3.59616 8.7573 3.55769L8.71884 3.57693Z" fill="black"/>
<path d="M10.8535 16.3269C9.62269 16.3269 8.52654 15.8654 7.71884 15.0385C6.93038 14.2116 6.50731 13.0769 6.565 11.8654C6.60346 10.6731 7.0073 9.57694 7.69961 8.78848C8.44961 7.90386 9.50731 7.44232 10.7381 7.44232C10.7958 7.44232 10.8535 7.44232 10.9112 7.44232C13.7958 7.44232 15.9688 9.26925 15.9688 11.6539C15.9688 12.8269 15.4881 13.9423 14.6419 14.8077C13.6612 15.7692 12.2958 16.3269 10.8535 16.3269ZM10.4304 9.00002C9.065 9.00002 7.69961 10.3269 7.69961 11.6731C7.69961 13.25 9.00731 14.6346 10.5073 14.6346C11.4496 14.6346 12.4304 14.2116 13.1227 13.5192C13.6804 12.9423 14.0073 12.2692 13.9881 11.6154C13.9881 10.3077 12.2765 9.03848 10.4688 9.00002H10.4304Z" fill="black"/>
</svg>
